<?xml version="1.0" standalone="no"?>
<!DOCTYPE svg PUBLIC "-//W3C//DTD SVG 20010904//EN"
 "http://www.w3.org/TR/2001/REC-SVG-20010904/DTD/svg10.dtd">
<svg version="1.0" xmlns="http://www.w3.org/2000/svg"
 width="880.000000pt" height="1280.000000pt" viewBox="0 0 880.000000 1280.000000"
 preserveAspectRatio="xMidYMid meet">
<metadata>
Created by potrace 1.15, written by Peter Selinger 2001-2017
</metadata>
<g transform="translate(0.000000,1280.000000) scale(0.100000,-0.100000)"
fill="#f1faee" stroke="none">
<path d="M4277 12770 c-8 -37 -58 -70 -107 -70 -19 0 -59 10 -88 22 -44 18
-55 20 -62 9 -13 -22 -3 -35 43 -56 43 -20 70 -59 82 -118 3 -17 17 -35 35
-45 17 -9 32 -24 35 -33 3 -9 17 -21 31 -28 22 -10 25 -16 19 -39 -12 -42 -9
-100 8 -187 9 -44 17 -81 17 -82 1 -10 -90 0 -107 12 -20 14 -21 13 -53 -103
-18 -64 -42 -154 -54 -198 l-23 -81 -178 -207 c-166 -193 -191 -217 -378 -367
l-199 -162 -191 -69 c-106 -38 -289 -103 -407 -145 -118 -42 -234 -88 -257
-102 -23 -14 -73 -62 -112 -106 -39 -44 -85 -94 -101 -112 -34 -37 -37 -49
-14 -74 23 -26 11 -49 -26 -49 -23 0 -33 6 -39 23 -9 21 -9 21 -20 -8 -54
-142 -98 -241 -127 -286 -18 -29 -37 -69 -40 -89 -11 -65 -36 -145 -55 -176
-21 -35 -25 -85 -8 -115 8 -16 7 -25 -5 -37 -8 -10 -19 -29 -25 -43 -6 -17
-27 -36 -57 -50 -26 -13 -60 -37 -76 -52 -24 -25 -28 -36 -28 -88 0 -51 -3
-59 -19 -59 -10 0 -31 -16 -46 -36 -25 -33 -31 -35 -64 -30 -20 4 -59 10 -86
14 -43 6 -57 14 -92 53 -23 25 -51 65 -61 90 -11 24 -31 55 -46 68 -19 18 -26
34 -26 63 0 31 -5 40 -23 47 -13 5 -29 16 -36 25 -17 20 -40 20 -65 1 -35 -27
-79 -19 -113 20 -18 20 -41 35 -53 35 -27 0 -58 16 -92 47 l-26 25 -49 -45
c-26 -24 -66 -53 -88 -64 l-40 -21 -38 25 c-37 23 -38 25 -23 46 65 88 69 107
26 107 -26 0 -30 4 -30 28 0 15 -7 37 -15 50 -12 16 -13 26 -5 42 19 35 47 43
90 26 46 -18 63 -14 78 20 7 13 16 24 21 24 6 0 15 9 21 20 8 15 6 31 -8 67
-37 92 -43 124 -41 198 1 41 0 77 -2 79 -2 2 -18 6 -35 9 -29 6 -32 3 -47 -34
-15 -37 -17 -39 -61 -39 -39 0 -47 -4 -60 -27 -19 -38 -61 -76 -137 -126 -53
-35 -65 -48 -72 -80 -7 -29 -19 -44 -49 -63 -22 -14 -47 -40 -56 -57 -10 -17
-56 -70 -103 -117 -85 -84 -86 -86 -92 -144 -3 -32 -10 -63 -16 -69 -5 -5 -7
-33 -4 -61 4 -40 2 -55 -11 -65 -9 -7 -16 -19 -16 -25 0 -10 71 -97 149 -181
26 -28 51 -67 51 -79 0 -3 -13 -6 -30 -6 -26 0 -30 -4 -36 -37 -4 -21 -11 -43
-16 -50 -13 -16 29 -72 59 -79 33 -9 140 -134 158 -184 21 -61 19 -138 -5
-177 -22 -36 -36 -39 -94 -18 -53 19 -72 5 -87 -62 -11 -49 -10 -55 12 -87 17
-25 50 -49 106 -77 45 -23 100 -57 122 -75 21 -19 47 -34 58 -34 10 0 38 -16
62 -35 24 -19 49 -35 56 -35 14 0 202 -78 265 -110 71 -36 149 -109 162 -152
13 -46 63 -108 87 -108 9 0 37 -20 61 -45 38 -38 43 -49 42 -84 -2 -33 3 -44
22 -57 26 -16 56 -89 56 -134 0 -17 19 -53 50 -96 30 -40 50 -76 48 -89 -1
-11 9 -36 24 -55 14 -19 33 -48 41 -65 15 -29 73 -82 129 -117 14 -10 29 -25
32 -35 4 -10 24 -31 46 -46 49 -35 118 -161 99 -183 -14 -18 -5 -30 39 -53 68
-35 103 -104 82 -165 -10 -31 -8 -39 17 -77 15 -23 31 -47 35 -53 4 -6 10 -28
13 -49 5 -29 14 -43 36 -55 32 -19 38 -46 13 -60 -14 -8 -14 -12 -3 -30 17
-27 29 -28 29 -2 0 11 6 20 13 20 22 0 26 -10 15 -40 -13 -40 4 -70 41 -70 27
0 29 -3 35 -57 4 -32 11 -69 16 -83 4 -14 11 -37 14 -52 3 -14 23 -48 44 -75
31 -39 40 -60 46 -107 3 -33 10 -64 15 -70 5 -6 12 -32 15 -58 5 -33 24 -72
67 -136 32 -50 59 -99 59 -110 0 -18 22 -52 62 -96 10 -11 18 -25 18 -31 0 -6
20 -38 45 -69 25 -32 45 -64 45 -71 0 -7 10 -22 23 -32 28 -22 49 -72 73 -175
14 -61 15 -81 6 -90 -7 -7 -12 -24 -12 -39 0 -24 11 -33 87 -74 97 -53 163
-102 163 -121 0 -8 18 -37 40 -66 41 -54 47 -72 30 -83 -5 -3 1 -29 15 -62 14
-30 25 -67 25 -82 0 -14 14 -46 30 -70 17 -24 30 -57 30 -72 0 -23 9 -34 42
-55 24 -14 62 -45 86 -68 35 -33 43 -47 40 -71 -2 -31 17 -67 58 -109 11 -11
28 -41 38 -66 10 -25 30 -56 45 -70 17 -16 35 -53 51 -104 20 -64 32 -84 63
-109 36 -30 70 -77 120 -168 13 -25 30 -55 37 -66 11 -17 10 -37 -5 -114 -10
-52 -24 -109 -32 -128 -12 -30 -15 -32 -26 -19 -16 21 -56 6 -58 -22 -1 -11
-2 -26 -3 -32 -1 -8 11 -13 29 -13 l30 -1 1 -87 c0 -54 5 -92 12 -99 9 -9 12
-9 12 0 0 17 87 -45 93 -67 2 -11 0 -24 -5 -29 -7 -7 8 -28 46 -63 31 -28 56
-59 56 -68 0 -9 7 -25 15 -35 8 -11 15 -31 15 -45 0 -18 11 -35 35 -54 60 -48
162 -115 214 -142 28 -14 51 -32 51 -40 0 -9 7 -18 16 -22 8 -3 26 -29 40 -58
23 -51 38 -65 72 -65 9 -1 30 -12 47 -25 28 -23 29 -25 11 -38 -18 -13 -17
-15 12 -25 30 -10 45 -42 21 -42 -32 0 47 -61 111 -86 8 -3 22 -10 30 -15 8
-5 26 -14 40 -20 59 -27 128 -65 175 -96 27 -18 54 -33 58 -33 21 0 77 -34 77
-46 0 -17 73 -64 99 -64 11 0 32 -6 48 -14 15 -8 44 -21 63 -28 19 -7 58 -36
87 -64 66 -67 135 -114 166 -114 13 0 32 -9 42 -20 10 -11 28 -20 39 -20 12 0
69 -16 128 -36 81 -27 108 -40 108 -53 0 -18 62 -47 79 -37 4 3 19 -3 31 -14
13 -11 28 -20 34 -20 6 0 29 -14 50 -30 22 -17 50 -30 62 -30 12 0 37 -15 56
-34 31 -31 42 -35 108 -42 98 -9 227 -72 252 -122 10 -21 32 -42 58 -54 23
-12 49 -33 58 -47 22 -35 32 -41 66 -41 22 0 42 -12 78 -50 41 -43 58 -53 125
-72 43 -12 87 -30 99 -40 11 -10 28 -18 37 -18 9 0 34 -18 55 -41 31 -31 42
-54 52 -100 7 -32 10 -75 7 -94 -5 -31 -3 -37 17 -45 39 -15 132 -77 162 -109
16 -17 35 -31 42 -31 19 0 102 -61 102 -74 0 -10 42 -47 134 -116 21 -16 53
-34 72 -39 18 -5 52 -27 75 -50 23 -22 47 -37 53 -33 6 4 36 7 66 8 68 1 180
20 220 36 18 8 46 39 75 83 l47 70 -7 75 c-4 53 -12 81 -25 95 -13 14 -17 28
-13 45 9 39 23 50 59 50 19 0 49 11 70 25 20 14 42 25 49 25 6 0 21 10 33 23
20 21 21 30 15 86 -5 54 -11 68 -40 97 -18 18 -33 38 -33 43 0 6 15 18 33 27
74 38 287 258 287 297 0 21 22 37 50 37 42 0 54 15 55 67 2 74 40 143 93 168
23 11 42 23 42 27 0 4 -21 23 -47 43 -42 32 -51 35 -92 30 -32 -4 -52 -1 -64
9 -10 8 -54 105 -97 216 l-78 201 39 83 c21 46 39 89 39 94 0 6 17 16 38 22
42 14 72 37 72 56 0 8 -18 25 -40 39 -25 16 -52 46 -70 79 -17 30 -38 57 -46
60 -12 5 -14 16 -8 53 9 62 18 80 54 98 27 14 30 20 30 65 0 47 2 50 34 64 25
11 36 22 41 46 5 24 19 40 56 63 27 16 49 35 50 41 0 6 1 27 2 46 2 32 5 35
46 43 l43 9 -7 56 c-8 65 -20 92 -39 92 -27 0 -38 31 -40 111 -2 79 -3 83 -34
109 -41 34 -41 50 2 50 18 0 38 6 44 13 16 19 23 210 13 357 l-8 134 50 61
c58 69 64 75 95 75 26 0 29 25 5 39 -16 9 -12 16 31 53 l48 43 -296 535 c-163
294 -300 538 -304 542 -4 4 -41 10 -82 14 -42 3 -92 15 -113 25 -52 26 -63 24
-113 -19 -30 -28 -63 -44 -110 -57 -85 -23 -148 -11 -211 41 -42 34 -45 35
-68 20 -13 -9 -27 -16 -31 -16 -3 0 -4 185 -2 411 l3 410 33 27 c37 31 40 51
12 77 -34 31 -33 50 6 105 20 28 34 53 31 56 -17 17 -77 -14 -138 -72 -38 -35
-73 -64 -79 -64 -5 0 -43 -31 -82 -68 -40 -38 -101 -84 -136 -102 -35 -18 -68
-42 -73 -53 -9 -15 -17 -18 -42 -13 -20 4 -36 1 -47 -9 -20 -19 -29 -19 -312
-17 l-238 2 7 60 c6 65 -9 103 -47 115 -13 4 -20 15 -20 33 -1 15 -7 38 -15
52 -8 14 -14 35 -15 47 0 36 -64 73 -125 73 -27 0 -72 9 -100 19 -66 25 -159
42 -272 48 -51 3 -93 9 -93 13 0 4 9 15 21 26 12 10 29 35 39 54 10 19 27 44
39 54 16 15 21 31 21 70 -1 56 -8 72 -62 137 -21 24 -48 64 -60 89 -17 33 -30
46 -48 48 -35 5 -70 41 -70 72 0 41 -40 92 -93 120 -39 21 -48 31 -53 60 -4
19 -13 43 -22 52 -8 10 -19 41 -23 70 -10 60 -31 93 -80 126 -46 31 -46 38 -5
52 50 16 49 49 -1 83 -21 14 -48 28 -59 31 -12 4 -42 33 -68 66 l-46 59 20 33
c11 18 20 50 20 72 0 33 3 38 20 33 10 -3 27 1 37 9 10 7 33 14 52 14 l33 0
-7 48 c-4 26 -16 57 -27 69 -15 16 -19 30 -15 50 25 125 30 134 107 186 25 17
65 48 90 70 25 21 58 46 73 54 16 8 42 30 59 49 21 24 39 34 59 34 49 0 69 30
69 105 0 36 -7 94 -16 129 -14 58 -14 66 0 94 9 17 16 49 16 72 0 33 8 50 38
87 20 25 47 49 60 54 14 5 22 17 22 31 0 13 7 36 15 52 19 36 19 48 -2 84 -16
27 -16 31 0 65 9 19 17 44 17 55 0 12 9 36 20 55 12 20 19 48 18 67 -3 32 0
35 47 53 28 10 69 18 91 18 36 -1 45 4 67 33 15 18 37 36 50 40 14 3 27 15 30
26 3 12 13 20 26 20 15 0 21 6 21 24 0 28 29 50 89 66 50 13 146 72 154 95 4
8 16 15 29 15 12 0 31 11 43 25 28 34 122 58 164 42 23 -8 39 -8 64 1 18 7 44
12 58 12 13 0 33 7 43 15 12 9 42 15 73 15 36 0 53 4 53 13 0 6 4 18 9 26 7
11 13 11 32 -3 28 -19 70 -21 88 -3 11 10 14 10 18 0 3 -7 13 -13 23 -13 10 0
20 6 23 13 3 9 8 8 22 -3 16 -14 20 -12 39 15 12 16 36 43 54 59 17 16 32 35
32 42 0 6 9 22 19 35 17 22 21 22 45 10 23 -13 28 -12 47 4 17 16 22 17 29 5
6 -8 10 -18 10 -22 0 -16 87 -8 103 10 12 13 28 16 67 14 50 -4 50 -4 48 -36
-2 -36 7 -56 26 -56 8 0 21 -10 30 -22 l16 -23 24 29 c19 22 29 27 49 22 14
-3 27 -15 31 -28 6 -23 6 -23 36 9 38 40 34 50 -47 119 -79 67 -100 93 -108
132 -11 57 -53 67 -186 47 -41 -7 -50 -4 -88 23 -23 17 -47 32 -53 34 -5 2 92
165 217 362 125 198 229 365 232 373 6 16 -16 45 -29 37 -14 -9 -117 48 -124
69 -4 12 -12 15 -29 11 -19 -5 -24 -1 -27 18 -2 19 -11 24 -47 29 -28 4 -51
14 -62 27 -21 27 -37 28 -56 5 -13 -17 -14 -17 -26 1 -58 89 -175 163 -252
160 -35 -1 -40 -4 -37 -23 3 -18 0 -20 -28 -15 -26 6 -36 2 -62 -25 -17 -17
-42 -32 -57 -33 -46 -2 -76 -6 -90 -9 -8 -2 -18 9 -25 28 -15 43 -26 51 -37
30 -14 -24 -28 -21 -35 8 -7 28 -78 65 -125 65 -16 0 -29 5 -29 10 0 17 -34
10 -63 -14 -15 -12 -35 -38 -45 -57 -16 -32 -20 -34 -79 -39 -51 -4 -67 -10
-92 -34 -23 -22 -35 -27 -56 -22 -18 5 -38 0 -65 -15 l-40 -23 -22 21 c-13 12
-43 27 -68 33 -25 7 -52 18 -61 27 -15 13 -20 11 -48 -19 -24 -26 -33 -30 -43
-20 -15 15 -75 16 -117 1 -29 -10 -35 -9 -59 13 -42 38 -79 58 -104 55 -17 -1
-25 5 -33 29 -5 17 -16 38 -22 46 -10 12 -7 18 18 37 16 12 35 33 41 46 9 20
5 30 -26 70 -31 41 -40 65 -49 135 -2 11 -16 15 -60 15 -47 0 -63 5 -91 28
-19 15 -42 27 -50 27 -27 0 -31 48 -6 82 29 39 21 68 -30 109 -33 27 -40 38
-40 69 0 38 -14 60 -39 60 -9 0 -28 7 -43 14 -17 9 -42 13 -62 9 -29 -5 -37
-1 -62 31 -20 24 -37 36 -55 36 -15 0 -37 12 -53 29 -16 16 -47 34 -72 40 -34
9 -50 20 -70 50 -14 22 -32 42 -40 45 -19 7 -18 26 1 26 22 0 18 17 -7 34 -20
14 -39 55 -69 152 -9 30 -86 104 -108 104 -6 0 -19 9 -30 21 -10 11 -27 19
-38 17 -25 -4 -77 37 -70 56 3 7 -7 26 -22 40 -25 24 -29 25 -41 11 -21 -25
-65 -19 -92 14 -14 16 -34 34 -46 40 -11 6 -23 19 -27 29 -5 18 -62 42 -97 42
-9 0 -18 -13 -21 -30z"/>
</g>
</svg>
