<?xml version="1.0" standalone="no"?>
<!DOCTYPE svg PUBLIC "-//W3C//DTD SVG 20010904//EN"
 "http://www.w3.org/TR/2001/REC-SVG-20010904/DTD/svg10.dtd">
<svg version="1.0" xmlns="http://www.w3.org/2000/svg"
 width="989.000000pt" height="1280.000000pt" viewBox="0 0 989.000000 1280.000000"
 preserveAspectRatio="xMidYMid meet">
<metadata>
Created by potrace 1.15, written by Peter Selinger 2001-2017
</metadata>
<g transform="translate(0.000000,1280.000000) scale(0.100000,-0.100000)"
fill="#352208" stroke="none">
<path d="M5010 12245 c-346 -91 -1040 -326 -1084 -366 -21 -18 104 -511 395
-1559 234 -841 377 -1342 387 -1352 19 -19 1151 357 1215 404 16 12 16 20 -8
128 -148 657 -709 2708 -757 2768 -13 15 1 17 -148 -23z"/>
<path d="M6640 12116 c-191 -59 -791 -287 -972 -369 -75 -35 -78 -37 -78 -70
0 -87 72 -367 295 -1152 129 -451 244 -843 286 -970 29 -86 33 -89 110 -75
121 22 576 162 946 292 102 36 144 55 148 68 12 37 -111 544 -320 1321 -166
618 -255 932 -271 957 -18 28 -47 28 -144 -2z"/>
<path d="M3415 11791 c-357 -139 -859 -350 -1067 -449 -90 -42 -118 -60 -118
-74 0 -83 719 -2699 801 -2915 14 -38 23 -41 82 -31 118 21 975 324 1232 435
l90 39 -1 70 c-2 81 -65 335 -239 959 -145 521 -433 1529 -518 1810 -59 196
-65 210 -87 212 -14 2 -92 -23 -175 -56z"/>
<path d="M2110 10503 c-90 -15 -568 -151 -840 -238 -226 -73 -230 -75 -230
-96 0 -103 400 -1871 501 -2212 34 -114 24 -114 321 -14 510 172 848 298 870
324 32 39 12 145 -147 783 -216 864 -371 1435 -396 1451 -14 9 -35 9 -79 2z"/>
<path d="M7485 9573 c-192 -47 -2060 -600 -2510 -743 -175 -55 -179 -58 -171
-124 17 -145 248 -840 291 -876 25 -20 259 14 878 130 346 65 661 120 689 120
10 0 37 -29 66 -72 66 -98 232 -366 232 -374 0 -9 -1718 2 -2685 17 -1016 16
-2651 17 -2665 3 -9 -9 -3 -25 23 -65 19 -30 87 -142 153 -249 175 -289 387
-621 994 -1560 300 -465 561 -869 579 -898 l34 -53 -47 -462 c-220 -2156 -391
-3955 -403 -4235 l-6 -133 504 4 c297 2 707 12 999 25 272 12 821 36 1220 52
1208 50 1606 73 1627 94 23 21 -2 256 -177 1661 -247 1983 -330 2709 -330
2875 l0 55 267 350 c146 193 523 685 838 1095 656 856 974 1274 999 1312 l17
27 -82 123 c-255 382 -1196 1764 -1266 1861 -19 26 -38 46 -41 46 -4 -1 -16
-4 -27 -6z"/>
</g>
</svg>
